<svg width="53" height="44" viewBox="0 0 53 44" fill="none" xmlns="http://www.w3.org/2000/svg">
<path d="M0.258785 20.8715C0.202552 21.7791 -0.461329 29.3577 4.64941 35.64L4.64844 35.641C8.5862 40.4565 14.8655 43.2181 23.2432 43.7845C23.5336 43.7845 23.8205 43.6877 24.0078 43.5511C24.1867 43.3661 24.2783 43.1374 24.2783 42.8509L24.2783 34.349C24.2783 33.8342 23.8606 33.4155 23.3555 33.4154C23.1447 33.4154 20.8646 33.3714 18.4541 32.1976C16.0335 31.0189 13.4859 28.7012 12.7725 24.1771L12.7363 23.9467L23.2988 23.9467C23.8039 23.9467 24.2214 23.5277 24.2217 23.0131L24.2217 1.13317C24.2214 0.618494 23.8039 0.199581 23.2988 0.199581L1.18163 0.199585C0.676659 0.19971 0.259003 0.618575 0.258782 1.13318L0.258785 20.8588L0.259762 20.8588L0.258785 20.8715Z" fill="white" stroke="#CF1941" stroke-width="0.4"/>
<path d="M28.2715 20.8721L28.2695 20.8838C28.1612 21.7592 27.5681 29.1208 32.4258 35.3447L32.6611 35.6406C36.6011 40.4591 42.8283 43.2217 51.2686 43.7861L51.2822 43.7871L51.2949 43.7891C51.5011 43.8307 51.7715 43.7467 51.9551 43.5615C52.1399 43.3749 52.2344 43.1428 52.2344 42.8516L52.2344 34.3496C52.2343 33.8348 51.8167 33.416 51.3115 33.416C51.1023 33.416 48.8077 33.3865 46.3896 32.2197C43.9612 31.0478 41.4134 28.7297 40.7285 24.1768L40.6943 23.9473L51.3115 23.9473C51.8166 23.9472 52.2342 23.5284 52.2344 23.0137L52.2344 1.13476C52.2344 0.619905 51.8167 0.201188 51.3115 0.201168L29.1943 0.201172C28.6891 0.201172 28.2715 0.619897 28.2715 1.13477L28.2715 20.8721Z" fill="white" stroke="#CF1941" stroke-width="0.4"/>
</svg>
