<svg width="164" height="172" viewBox="0 0 164 172" fill="none" xmlns="http://www.w3.org/2000/svg">
<path d="M117.981 140.985L117.982 141.001C118.058 142.217 118.939 152.295 112.147 160.644L112.148 160.645C106.922 167.036 98.5726 170.722 87.3818 171.479C87.0499 171.477 86.7271 171.366 86.5205 171.222C86.3348 171.023 86.2383 170.779 86.2383 170.459L86.2383 159.059C86.2383 158.494 86.6961 158.039 87.2432 158.039C87.5423 158.039 90.6399 157.979 93.917 156.383C97.2195 154.775 100.693 151.609 101.663 145.456L101.754 144.878L87.3184 144.878C86.7713 144.878 86.3135 144.422 86.3135 143.857L86.3135 114.52C86.3137 113.955 86.7714 113.5 87.3184 113.5L116.977 113.5C117.524 113.5 117.981 113.955 117.981 114.52L117.981 140.985Z" fill="#CF1941" stroke="#CF1941"/>
<path d="M80.418 141.002L80.4219 141.032C80.567 142.204 81.3786 152.292 74.584 160.645L74.585 160.646C69.3548 167.042 61.0734 170.727 49.7979 171.481L49.7646 171.484L49.7324 171.49C49.5422 171.529 49.2552 171.45 49.0566 171.249C48.855 171.045 48.7501 170.795 48.75 170.461L48.75 159.06C48.7502 158.495 49.2087 158.04 49.7559 158.04C50.0522 158.04 53.1688 157.999 56.4561 156.413C59.7702 154.814 63.2442 151.646 64.1758 145.453L64.2617 144.879L49.7559 144.879C49.2087 144.879 48.7502 144.424 48.75 143.859L48.75 114.521C48.75 113.957 49.2086 113.501 49.7559 113.501L79.4131 113.501C79.9603 113.501 80.418 113.957 80.418 114.521L80.418 141.002Z" fill="#CF1941" stroke="#CF1941"/>
<circle cx="5.11752" cy="157.596" r="5.11752" fill="#CF1941"/>
<circle cx="158.643" cy="157.596" r="5.11752" fill="#CF1941"/>
<line x1="81.5" y1="87" x2="81.5" y2="2.18557e-08" stroke="#494949"/>
</svg>
