<svg width="35" height="35" viewBox="0 0 35 35" fill="none" xmlns="http://www.w3.org/2000/svg">
<rect width="35" height="35" rx="17.5" fill="#FFD737"/>
<path fill-rule="evenodd" clip-rule="evenodd" d="M25.9295 10.5427C26.1347 10.7567 26.25 11.047 26.25 11.3496C26.25 11.6522 26.1347 11.9425 25.9295 12.1565L15.5308 22.9993C15.3255 23.2133 15.0471 23.3335 14.7569 23.3335C14.4666 23.3335 14.1883 23.2133 13.983 22.9993L9.05727 17.8633C8.85788 17.648 8.74755 17.3597 8.75004 17.0604C8.75254 16.7612 8.86765 16.4749 9.0706 16.2633C9.27355 16.0517 9.54809 15.9317 9.83509 15.9291C10.1221 15.9265 10.3986 16.0415 10.605 16.2494L14.7569 20.5785L24.3817 10.5427C24.587 10.3287 24.8654 10.2085 25.1556 10.2085C25.4459 10.2085 25.7242 10.3287 25.9295 10.5427Z" fill="#DC1D46"/>
</svg>
