<svg width="100" height="100" viewBox="0 0 100 100" fill="none" xmlns="http://www.w3.org/2000/svg">
<circle cx="50" cy="50" r="50" fill="white"/>
<path d="M47.667 54.6667H52.3337C53.5713 54.6667 54.7583 54.175 55.6335 53.2998C56.5087 52.4247 57.0003 51.2377 57.0003 50C57.0003 48.7623 56.5087 47.5753 55.6335 46.7002C54.7583 45.825 53.5713 45.3333 52.3337 45.3333H45.3337C43.9337 45.3333 42.767 45.8 42.067 46.7333L29.0003 59.3333M38.3337 68.6667L42.067 65.4C42.767 64.4667 43.9337 64 45.3337 64H54.667C57.2337 64 59.567 63.0667 61.2003 61.2L71.9337 50.9333C72.8341 50.0824 73.3596 48.9087 73.3946 47.6703C73.4296 46.432 72.9712 45.2304 72.1203 44.33C71.2694 43.4296 70.0957 42.9041 68.8573 42.8691C67.619 42.8341 66.4174 43.2924 65.517 44.1433L55.717 53.2433M26.667 57L40.667 71M67.5003 41.8333C69.1337 40.2 71.0003 38.1 71.0003 35.5333C71.1634 34.1075 70.8402 32.6684 70.0832 31.4492C69.3261 30.2299 68.1795 29.3021 66.8292 28.816C65.4789 28.3299 64.004 28.314 62.6436 28.7709C61.2831 29.2278 60.1168 30.1307 59.3337 31.3333C58.5007 30.224 57.3341 29.411 56.005 29.0135C54.676 28.616 53.2545 28.6551 51.9493 29.125C50.6441 29.5949 49.5239 30.4708 48.7532 31.6242C47.9824 32.7776 47.6017 34.1477 47.667 35.5333C47.667 38.3333 49.5337 40.2 51.167 42.0667L59.3337 50L67.5003 41.8333Z" stroke="black" stroke-linecap="round" stroke-linejoin="round"/>
</svg>
