<svg width="80" height="78" viewBox="0 0 80 78" fill="none" xmlns="http://www.w3.org/2000/svg">
<path d="M76.4493 35.5833H64.3084C65.4537 34.2319 66.0264 32.5426 65.7974 30.7407C65.5683 29.0514 64.652 27.3621 63.2775 26.3485C61.9031 25.335 60.0705 24.8845 58.3524 25.1097C56.6344 25.4476 55.0308 26.3485 54 27.8126C52.9692 26.3485 51.4802 25.335 49.6476 25.1097C47.9295 24.7719 46.0969 25.2223 44.7225 26.3485C43.348 27.3621 42.4317 29.0514 42.2026 30.7407C41.9736 32.43 42.5463 34.2319 43.6916 35.5833H31.5507C29.6035 35.5833 28 37.16 28 39.0745V41.4395C28 43.354 29.6035 44.9307 31.5507 44.9307H76.4493C78.3965 44.9307 80 43.354 80 41.4395V39.0745C80 37.0474 78.3965 35.5833 76.4493 35.5833ZM52.8546 35.5833H48.7313C47.0132 35.5833 45.5242 34.5697 44.9515 33.1057C44.2643 31.6416 44.7225 29.8397 45.8678 28.7135C47.0132 27.5874 48.8458 27.2495 50.3348 27.8126C51.8238 28.4883 52.8546 29.9524 52.8546 31.529V35.5833ZM59.2687 35.5833H55.1454V31.529C55.1454 29.8397 56.1762 28.3757 57.6652 27.8126C59.1542 27.1369 60.9868 27.5874 62.1322 28.7135C63.2775 29.8397 63.6211 31.6416 63.0485 33.1057C62.4758 34.5697 60.9868 35.5833 59.2687 35.5833ZM72.8987 75C74.8458 75 76.4493 73.4233 76.4493 71.5088V47.1831H31.5507V71.5088C31.5507 73.4233 33.1542 75 35.1013 75H72.8987ZM54 55.6295C55.6035 54.0528 58.1233 53.6024 60.185 54.5033C62.2467 55.4043 63.6211 57.544 63.3921 59.7964C63.3921 61.9362 62.2467 66.2157 54.4582 70.1574C54.1145 70.27 53.7709 70.27 53.4273 70.1574C45.6388 66.3283 44.4934 62.0488 44.4934 59.7964C44.3789 57.544 45.6388 55.4043 47.7004 54.5033C49.8767 53.6024 52.3965 54.0528 54 55.6295Z" fill="#FF436C"/>
<path d="M38.7406 0C35.4922 0 32.364 1.20313 30.0781 3.48906C27.7922 1.20313 24.664 0 21.4156 0C15.039 0 10.3469 6.01563 11.7906 12.7531L3.60936 16.2422C3.36873 16.3625 3.12811 16.6031 3.00779 16.8438L0.481231 21.8969C-1.88947e-05 22.8594 -1.88947e-05 23.8219 0.360919 24.7844C0.721856 25.7469 1.44373 26.4688 2.40623 26.95L3.00779 27.1906V47.8844C3.00779 49.3281 3.84998 50.7719 5.29373 51.2531L28.875 61.3594C29.8375 61.7203 30.9203 61.7203 31.7625 61.3594L55.3437 51.2531C56.6672 50.6516 57.6297 49.3281 57.6297 47.8844V27.1906L58.2312 26.95C59.1937 26.5891 59.9156 25.7469 60.2765 24.7844C60.6375 23.8219 60.5172 22.7391 60.1562 21.8969L57.2687 16.8438C57.1484 16.6031 56.9078 16.3625 56.6672 16.2422L48.4859 12.7531C49.8094 6.01563 45.1172 0 38.7406 0ZM12.5125 15.0391C13.5953 17.5656 15.1594 19.7312 17.2047 21.5359L7.21873 17.325L12.5125 15.0391ZM3.24842 24.6641C2.88748 24.5438 2.64686 24.3031 2.52654 23.9422C2.40623 23.5812 2.40623 23.2203 2.52654 22.9797L4.57186 18.8891L28.2734 29.1156L26.2281 33.3266C25.9875 33.9281 25.2656 34.1688 24.664 33.9281L3.24842 24.6641ZM28.875 58.8328L6.01561 49.0875C5.53436 48.8469 5.29373 48.4859 5.29373 48.0047V28.2734L23.7015 36.2141C25.5062 36.9359 27.6719 36.2141 28.514 34.4094L28.875 33.8078V58.8328ZM21.4156 2.52656C24.4234 2.52656 27.1906 3.85 29.1156 6.13594C29.3562 6.49687 29.7172 6.61719 30.0781 6.61719C30.439 6.61719 30.8 6.49687 31.0406 6.13594C32.9656 3.85 35.7328 2.52656 38.7406 2.52656C46.9219 2.52656 53.1781 16.2422 30.0781 27.1906C6.9781 16.1219 13.114 2.52656 21.4156 2.52656ZM54.8625 48.0047C54.8625 48.4859 54.6219 48.9672 54.1406 49.0875L31.2812 58.8328V33.8078L31.6422 34.4094C32.4844 36.2141 34.65 36.9359 36.4547 36.2141L54.8625 28.2734V48.0047ZM57.5094 22.9797C57.6297 23.3406 57.6297 23.5812 57.5094 23.9422C57.389 24.3031 57.1484 24.5438 56.7875 24.6641L35.3719 33.8078C34.7703 34.0484 34.0484 33.8078 33.8078 33.2062L31.7625 28.9953L55.464 18.7688L57.5094 22.9797ZM52.9375 17.325L42.9515 21.6562C44.9969 19.8516 46.5609 17.5656 47.6437 15.1594L52.9375 17.325ZM41.2672 10.3469C41.3875 9.625 41.1469 8.90312 40.6656 8.42188C40.1844 7.82031 39.4625 7.57969 38.7406 7.45937C38.0187 7.45937 37.5375 6.85781 37.5375 6.25625C37.5375 5.53437 38.139 5.05312 38.7406 5.05312C40.064 5.05312 41.3875 5.65469 42.35 6.7375C43.3125 7.7 43.7937 9.14375 43.6734 10.4672C43.6734 11.1891 43.0719 11.6703 42.4703 11.6703C41.7484 11.55 41.2672 11.0688 41.2672 10.3469Z" fill="#3F3F3F"/>
</svg>
