<svg width="100" height="100" viewBox="0 0 100 100" fill="none" xmlns="http://www.w3.org/2000/svg">
<circle cx="50" cy="50" r="50" fill="white"/>
<path d="M49.9997 56.9999L42.9997 49.9999M49.9997 56.9999C53.259 55.7603 56.3857 54.1969 59.333 52.3333M49.9997 56.9999V68.6666C49.9997 68.6666 57.0697 67.3833 59.333 63.9999C61.853 60.2199 59.333 52.3333 59.333 52.3333M42.9997 49.9999C44.2413 46.7786 45.8048 43.6907 47.6663 40.7833C50.3851 36.4362 54.1708 32.857 58.6633 30.3861C63.1559 27.9152 68.2059 26.6348 73.333 26.6666C73.333 33.0133 71.513 44.1666 59.333 52.3333M42.9997 49.9999H31.333C31.333 49.9999 32.6163 42.9299 35.9997 40.6666C39.7797 38.1466 47.6663 40.6666 47.6663 40.6666M32.4997 60.4999C28.9997 63.4399 27.833 72.1666 27.833 72.1666C27.833 72.1666 36.5597 70.9999 39.4997 67.4999C41.1563 65.5399 41.133 62.5299 39.2897 60.7099C38.3827 59.8443 37.188 59.3441 35.9349 59.3053C34.6817 59.2666 33.4584 59.692 32.4997 60.4999Z" stroke="black" stroke-linecap="round" stroke-linejoin="round"/>
</svg>
