<svg width="78" height="78" viewBox="0 0 78 78" fill="none" xmlns="http://www.w3.org/2000/svg">
<path d="M30.5187 71.3672V27.8906C30.5187 25.1953 32.4187 22.7344 35.15 22.0312C35.5062 21.9141 35.8625 22.0312 36.2187 22.2656C36.575 22.5 36.6937 22.8516 36.6937 23.2031V44.7656C36.6937 45.4687 37.2875 45.9375 37.8812 45.9375C38.5937 45.9375 39.0687 45.3516 39.0687 44.7656V23.0859C39.0687 22.3828 39.6625 21.9141 40.2562 21.9141H42.75C43.4625 21.9141 43.9375 22.5 43.9375 23.0859V44.8828C43.9375 45.5859 44.5312 46.0547 45.125 46.0547C45.8375 46.0547 46.3125 45.4687 46.3125 44.8828V23.0859C46.3125 22.3828 46.9062 21.9141 47.5 21.9141H49.9937C50.7062 21.9141 51.1812 22.5 51.1812 23.0859V44.8828C51.1812 45.5859 51.775 46.0547 52.3687 46.0547C53.0812 46.0547 53.5562 45.4687 53.5562 44.8828V23.2031C53.5562 22.8516 53.675 22.5 54.0312 22.2656C54.3875 22.0312 54.7437 21.9141 55.1 22.0312C57.8312 22.7344 59.7312 25.0781 59.7312 27.8906V46.0547C59.7312 46.7578 60.325 47.2266 60.9187 47.2266C61.6312 47.2266 62.1062 46.6406 62.1062 46.0547V40.7812C62.1062 34.9219 70.6562 35.1562 70.6562 40.6641V50.0391C70.6562 54.0234 68.5187 57.6562 64.9562 59.5312L64.0062 60C61.275 61.5234 59.6125 64.3359 59.6125 67.3828V71.3672C59.6125 73.3594 57.95 75 55.9312 75H34.2C32.1812 75 30.5187 73.3594 30.5187 71.3672Z" fill="#FF436C"/>
<path d="M4.75 42.3047V24.9609C4.75 23.3203 5.34375 21.7969 6.53125 20.7422L12.1125 15.2344V1.17188C12.1125 0.46875 12.7062 0 13.3 0C13.8937 0 14.4875 0.585938 14.4875 1.17188V15.7031C14.4875 16.0547 14.3688 16.2891 14.1313 16.5234L8.19375 22.3828C7.48125 23.0859 7.125 24.0234 7.125 24.9609V42.3047C7.125 43.0078 7.71875 43.4766 8.3125 43.4766H11.9937V26.6016C11.9937 25.8984 12.5875 25.4297 13.1812 25.4297C13.775 25.4297 14.3688 26.0156 14.3688 26.6016V56.8359C14.3688 57.5391 14.9625 58.0078 15.5563 58.0078H19.2375V41.0156C19.2375 40.3125 19.8312 39.8438 20.425 39.8438C21.1375 39.8438 21.6125 40.4297 21.6125 41.0156V57.8906H26.4812V41.0156C26.4812 40.3125 27.075 39.8438 27.6687 39.8438C28.2625 39.8438 28.8562 40.4297 28.8562 41.0156V57.8906H33.725V41.0156C33.725 40.3125 34.3187 39.8438 34.9125 39.8438C35.625 39.8438 36.1 40.4297 36.1 41.0156V57.8906H39.7812C40.4938 57.8906 40.9688 57.3047 40.9688 56.7188V1.17188C40.9688 0.46875 41.5625 0 42.1562 0C42.75 0 43.3438 0.585938 43.3438 1.17188V56.7188C43.3438 58.7109 41.6812 60.3516 39.6625 60.3516H15.7938C13.775 60.3516 12.1125 58.7109 12.1125 56.7188V45.8203H8.43125C6.4125 45.9375 4.75 44.2969 4.75 42.3047ZM18.1688 24.1406C18.05 22.6172 18.6437 21.0938 19.5938 20.0391C20.6625 18.8672 22.0875 18.2813 23.6312 18.1641C25.175 18.1641 26.7188 18.75 27.9062 19.8047C29.0938 18.75 30.6375 18.1641 32.1813 18.1641C33.725 18.2813 35.15 18.8672 36.2188 20.0391C37.2875 21.2109 37.7625 22.6172 37.6438 24.1406C37.6438 26.3672 36.4562 30.8203 28.3812 34.9219C28.025 35.0391 27.6688 35.0391 27.3125 34.9219C19.3563 30.8203 18.1688 26.4844 18.1688 24.1406ZM20.6625 24.1406C20.6625 26.9531 23.275 30 28.025 32.4609C32.6563 30 35.3875 26.9531 35.3875 24.1406C35.5062 23.2031 35.15 22.3828 34.675 21.6797C34.0813 20.9766 33.25 20.625 32.4187 20.5078C31.1125 20.5078 29.925 21.0937 29.2125 22.1484C28.975 22.5 28.6188 22.7344 28.1438 22.7344C27.7875 22.7344 27.3125 22.5 27.075 22.1484C26.3625 21.0937 25.0563 20.5078 23.8688 20.5078C22.9188 20.625 22.0875 20.9766 21.6125 21.6797C20.9 22.3828 20.5437 23.3203 20.6625 24.1406Z" fill="#3F3F3F"/>
</svg>
