<svg width="78" height="78" viewBox="0 0 78 78" fill="none" xmlns="http://www.w3.org/2000/svg">
<path d="M63.3468 26.0371C58.2406 26.0371 53.4974 28.2261 50.215 31.9947C46.9326 28.2261 42.0684 26.0371 37.0832 26.0371C28.9366 26.0371 22.6138 33.2113 22.6138 42.3303C22.6138 48.8951 26.1404 61.6639 49.6056 73.5791C49.9708 73.7001 50.336 73.7001 50.699 73.5791C51.6714 73.0929 52.6438 72.6067 53.4952 72.1205C44.132 65.4325 42.5524 58.7467 42.5524 54.9759C42.5524 47.9227 47.5376 42.4513 53.8604 42.4513C56.5356 42.4513 59.2108 43.3027 61.3998 44.8823C63.5888 43.3027 66.264 42.4513 68.9392 42.4513C72.2216 42.4513 75.262 43.9099 77.3278 46.4641C77.572 45.1265 77.814 43.7889 77.814 42.4513C77.814 33.2113 71.4934 26.0371 63.3468 26.0371ZM69.7928 38.9247C68.6994 35.5213 66.3894 33.5743 63.349 33.5743C62.6186 33.5743 62.1324 32.9671 62.1324 32.3577C62.1324 31.6273 62.7396 31.1411 63.349 31.1411C67.4828 31.1411 70.7652 33.8163 72.1028 38.3153C72.347 38.9225 71.9818 39.6529 71.2514 39.8949C70.6442 39.8949 70.0348 39.5297 69.7928 38.9225V38.9247ZM69.0624 44.8845C66.2662 44.8845 63.47 46.1011 61.523 48.1669C59.5782 46.0989 56.903 44.8845 53.9836 44.8845C49.1194 44.8845 45.2298 49.2625 45.2298 54.9759C45.2298 58.8677 47.2978 66.5259 60.9158 73.7001C61.281 73.9443 61.7672 73.9443 62.0092 73.7001C75.7482 66.4049 77.8162 58.7445 77.8162 54.8549C77.8162 49.2625 73.9244 44.8845 69.0624 44.8845ZM70.279 54.8527C70.279 53.5151 69.6718 52.2985 69.0624 52.2985C68.332 52.2985 67.8458 51.6913 67.8458 51.0819C67.8458 50.3515 68.453 49.8653 69.0624 49.8653C71.4934 49.8653 72.831 52.4195 72.831 54.8505C72.831 55.5809 72.2238 56.0671 71.6144 56.0671C70.884 56.0671 70.2768 55.5809 70.2768 54.8505L70.279 54.8527Z" fill="#FF436C"/>
<path d="M31.3698 66.0395C44.0154 66.0395 55.4444 58.3791 60.3086 46.7059C65.1728 35.0327 62.4976 21.5379 53.4996 12.5399C44.6226 3.54192 31.1278 0.866719 19.3336 5.73092C7.6604 10.5951 0 22.0241 0 34.6697C0 51.9353 14.1042 66.0395 31.3698 66.0395ZM55.8096 19.4721C63.9562 32.6039 60.3086 49.7485 47.542 58.5023C47.421 57.1647 46.6906 56.0713 45.474 55.4619C41.4612 53.1519 40.1236 53.2729 40.1236 51.9353C40.2446 51.0839 39.8794 50.4767 40.4888 49.8673L45.9602 44.3959C47.0536 43.3025 47.4188 41.4787 46.6906 40.0179C43.8944 34.4255 43.8944 34.5465 43.8944 34.0603C44.0154 32.2365 43.6502 31.6293 44.2596 31.0199C46.8138 28.3447 47.3 28.2237 47.663 27.2513L50.5802 21.5357C51.0664 20.5633 52.283 20.9285 52.8902 20.8053C54.1068 20.8053 55.0792 20.3191 55.8074 19.4677L55.8096 19.4721ZM54.472 17.4041C53.9858 17.7693 53.7416 18.3765 52.8924 18.3765C52.5272 18.4975 49.61 17.8903 48.3934 20.4445L45.4762 26.1601C45.3552 26.5253 45.3552 26.4043 42.559 29.2005C40.9794 30.7801 41.5866 32.6039 41.4656 33.9415C41.4656 35.4001 42.0728 35.8863 44.506 40.9947C44.7502 41.4809 44.627 42.0881 44.2618 42.4533L38.7904 47.9247C37.818 49.0181 37.4528 50.3557 37.697 51.8165C37.697 55.3431 41.5888 55.7083 44.506 57.5321C45.4784 58.0183 45.1132 59.2349 45.2364 59.8421C34.7798 65.5577 21.8922 64.2201 12.7732 56.5597C14.1108 55.5873 17.6374 55.1011 17.6374 51.8187V46.8335C17.6374 45.9821 18.3678 45.7401 20.7988 43.1859C21.043 42.9417 20.7988 43.1859 27.0006 39.5383C29.7968 37.9587 28.5802 34.7973 28.8244 31.8779C28.8244 29.5679 27.1216 28.8375 26.0282 27.4999C24.9348 26.4065 26.3934 25.3109 27.973 21.7843C28.7034 20.3257 28.4592 18.6229 27.2426 17.4063C25.905 15.9477 25.1746 15.5825 25.1746 14.7311C25.0536 13.7587 25.6608 11.9349 24.0812 10.3531C21.7712 8.04312 21.6502 8.16412 21.527 7.43592C33.3212 3.18112 46.8182 7.19172 54.4786 17.4063L54.472 17.4041ZM19.0894 8.52932C19.5756 9.86692 20.306 10.1089 22.2508 12.1769C22.858 12.7841 22.495 13.3935 22.616 14.7311C22.616 18.0135 26.6288 18.7439 25.6564 20.5677C24.805 23.1219 21.4016 26.4043 24.1978 29.2005C25.5354 30.6591 26.2658 31.0243 26.2658 31.8757C26.1448 35.6443 26.752 36.8609 25.6586 37.4681C19.58 40.9947 19.4568 40.8715 18.8496 41.4809C16.7816 43.7909 14.9578 44.5213 14.9578 46.9523V51.9375C14.9578 53.2751 13.4992 53.1541 10.703 54.8547C4.1382 48.1667 1.2188 38.8057 2.9216 29.5635C4.6244 20.3213 10.582 12.5421 19.0938 8.52932H19.0894Z" fill="#3F3F3F"/>
</svg>
