<svg width="100" height="100" viewBox="0 0 100 100" fill="none" xmlns="http://www.w3.org/2000/svg">
<circle cx="50" cy="50" r="50" fill="white"/>
<path d="M45.4846 51.1508L31.0646 54.2261C30.5049 54.3476 29.9199 54.2438 29.436 53.9373C28.9522 53.6307 28.6085 53.1461 28.4793 52.5881L27.2263 47.5714C27.079 46.967 27.1626 46.3293 27.4609 45.7834C27.7591 45.2374 28.2504 44.8224 28.8386 44.6198L60.348 34.2598M53.6396 49.4101L63.7476 47.2541M59.333 71.0004L52.088 56.5104M36.3683 42.1441L38.9676 52.5414M40.6663 71.0004L47.9113 56.5104M60.4646 35.8604C60.1647 34.6599 60.3538 33.3894 60.9905 32.3283C61.6271 31.2672 62.6592 30.5024 63.8596 30.2021L66.403 29.5674C67.0029 29.4178 67.6377 29.5124 68.168 29.8304C68.6982 30.1485 69.0805 30.664 69.231 31.2638L72.766 45.4038C72.9163 46.004 72.8221 46.6395 72.5039 47.1702C72.1858 47.701 71.6699 48.0837 71.0696 48.2341L68.5263 48.8688C67.3257 49.1687 66.0552 48.9796 64.9941 48.3429C63.933 47.7062 63.1682 46.6742 62.8679 45.4738L60.4646 35.8604ZM54.6663 52.3338C54.6663 54.9111 52.5769 57.0004 49.9996 57.0004C47.4223 57.0004 45.333 54.9111 45.333 52.3338C45.333 49.7564 47.4223 47.6671 49.9996 47.6671C52.5769 47.6671 54.6663 49.7564 54.6663 52.3338Z" stroke="black" stroke-linecap="round" stroke-linejoin="round"/>
</svg>
