<svg width="22" height="21" viewBox="0 0 22 21" fill="none" xmlns="http://www.w3.org/2000/svg">
<path d="M11.2368 12.3829C12.3147 12.3829 13.1885 11.5117 13.1885 10.4371C13.1885 9.3624 12.3147 8.49121 11.2368 8.49121C10.159 8.49121 9.28516 9.3624 9.28516 10.4371C9.28516 11.5117 10.159 12.3829 11.2368 12.3829Z" fill="#CF1941"/>
<path d="M11.1771 0C5.3812 0 0.708984 4.65824 0.708984 10.4368C0.708984 16.2154 5.3812 20.8736 11.1771 20.8736C16.973 20.8736 21.6453 16.2154 21.6453 10.4368C21.6453 4.65824 16.973 0 11.1771 0ZM17.3279 12.8544C17.3279 14.8592 15.6719 16.5102 13.6611 16.5102H8.7523C6.74147 16.5102 5.08549 14.8592 5.08549 12.8544V7.96028C5.08549 5.95547 6.74147 4.30445 8.7523 4.30445H13.6611C15.6719 4.30445 17.3279 5.95547 17.3279 7.96028V12.8544ZM13.6611 5.48375H8.7523C7.33289 5.48375 6.20919 6.60409 6.20919 8.01925V12.9133C6.20919 14.3285 7.33289 15.4488 8.7523 15.4488H13.6611C15.0805 15.4488 16.2042 14.3285 16.2042 12.9133V8.01925C16.2042 6.60409 15.0214 5.48375 13.6611 5.48375ZM11.2363 13.444C9.58028 13.444 8.22002 12.0878 8.22002 10.4368C8.22002 8.78579 9.58028 7.4296 11.2363 7.4296C12.8922 7.4296 14.2525 8.78579 14.2525 10.4368C14.2525 12.0878 12.8922 13.444 11.2363 13.444ZM14.4299 7.90132C14.0159 7.90132 13.7202 7.60649 13.7202 7.19374C13.7202 6.78098 14.0159 6.48616 14.4299 6.48616C14.8439 6.48616 15.1396 6.83995 15.1396 7.19374C15.1396 7.54753 14.8439 7.90132 14.4299 7.90132Z" fill="#CF1941"/>
</svg>
