<svg width="22" height="21" viewBox="0 0 22 21" fill="none" xmlns="http://www.w3.org/2000/svg">
<path d="M10.8861 0C5.0902 0 0.417969 4.65824 0.417969 10.4368C0.417969 16.2154 5.0902 20.8736 10.8861 20.8736C16.682 20.8736 21.3542 16.2154 21.3542 10.4368C21.3542 4.65824 16.6229 0 10.8861 0ZM16.682 6.83995C16.682 6.89891 16.682 6.95788 16.6229 7.01684C16.3272 7.37063 16.0906 7.66546 15.7358 7.96028C15.6766 8.01925 15.6175 8.01925 15.6175 8.13718C15.6175 10.0241 15.1443 11.9109 13.7841 13.2671C12.0098 14.9771 9.40756 15.4488 7.10102 14.8002C6.62788 14.6823 6.21389 14.5054 5.7999 14.2695C5.68161 14.2106 5.50419 14.0926 5.3859 14.0337C5.32676 14.0337 5.32676 13.9747 5.32676 13.9747C5.3859 13.9747 5.3859 13.9747 5.50419 13.9747C6.15475 14.0337 6.80531 13.9158 7.45587 13.7389C7.81073 13.6209 8.52043 13.3851 8.757 13.0902C8.63871 13.0902 8.57957 13.0902 8.52043 13.0313C7.86987 12.8544 7.04187 12.5006 6.62788 11.4982C6.62788 11.4392 6.62788 11.3803 6.68703 11.4392C7.2193 11.4982 7.39673 11.4392 7.57416 11.4392C7.45587 11.4392 7.39673 11.3803 7.27845 11.3803C6.45046 11.0854 5.91818 10.3189 5.7999 9.43441C5.7999 9.31648 5.7999 9.25751 5.7999 9.13958C5.7999 9.08062 5.85904 9.08062 5.85904 9.08062C6.27304 9.31648 6.74617 9.37544 6.74617 9.31648C6.62789 9.25751 6.56875 9.13958 6.45046 9.08062C5.74076 8.432 5.50418 7.07581 6.03646 6.2503C6.0956 6.19133 6.09561 6.19133 6.15475 6.2503C7.39673 7.66546 8.99356 8.37304 10.827 8.66786C10.8861 8.66786 10.8861 8.66786 10.8861 8.6089C10.827 8.25511 10.827 7.96028 10.8861 7.60649C10.9453 7.2527 11.1227 6.95788 11.3592 6.66305C11.5958 6.42719 11.8324 6.19133 12.1281 6.01443C12.4238 5.83754 12.7787 5.77857 13.0744 5.71961C13.4292 5.71961 13.7841 5.77857 14.0798 5.8965C14.3163 6.01443 14.5529 6.13236 14.7303 6.30926C14.7895 6.36822 14.7895 6.36822 14.8486 6.42719C14.8486 6.42719 14.9078 6.48615 14.9669 6.42719C15.44 6.30926 15.9132 6.13236 16.3272 5.8965H16.3863V5.95547C16.3272 6.19133 16.1498 6.42719 16.0315 6.66305C15.9132 6.78098 15.6766 7.13477 15.44 7.13477C15.9132 7.13477 16.268 7.01684 16.682 6.83995Z" fill="#CF1941"/>
</svg>
