<svg width="21" height="21" viewBox="0 0 21 21" fill="none" xmlns="http://www.w3.org/2000/svg">
<path d="M10.5641 0H10.5635C4.79954 0 0.126953 4.67259 0.126953 10.4365V10.4371C0.126953 16.201 4.79954 20.8736 10.5635 20.8736H10.5641C16.328 20.8736 21.0006 16.201 21.0006 10.4371V10.4365C21.0006 4.67259 16.328 0 10.5641 0Z" fill="#CF1941"/>
<path d="M14.9352 6.04004H6.19387C5.21954 6.04004 4.42969 6.82989 4.42969 7.80423V13.0688C4.42969 14.0432 5.21954 14.833 6.19387 14.833H14.9352C15.9095 14.833 16.6993 14.0432 16.6993 13.0688V7.80423C16.6993 6.82989 15.9095 6.04004 14.9352 6.04004Z" fill="#F6F5F1"/>
<path d="M12.6011 10.4367L10.9379 11.4442L9.27539 12.4511V10.4367V8.42285L10.9379 9.42977L12.6011 10.4367Z" fill="#CF1941"/>
</svg>
