<svg width="100" height="100" viewBox="0 0 100 100" fill="none" xmlns="http://www.w3.org/2000/svg">
<circle cx="50" cy="50" r="50" fill="#2B0A0A"/>
<path d="M45.4856 51.1508L31.0656 54.2261C30.5059 54.3476 29.9208 54.2438 29.437 53.9373C28.9532 53.6307 28.6095 53.1461 28.4803 52.5881L27.2273 47.5714C27.0799 46.967 27.1636 46.3293 27.4618 45.7834C27.7601 45.2374 28.2514 44.8224 28.8396 44.6198L60.3489 34.2598M53.6406 49.4101L63.7486 47.2541M59.3339 71.0004L52.0889 56.5104M36.3693 42.1441L38.9686 52.5414M40.6673 71.0004L47.9123 56.5104M60.4656 35.8604C60.1656 34.6599 60.3548 33.3894 60.9915 32.3283C61.6281 31.2672 62.6601 30.5024 63.8606 30.2021L66.4039 29.5674C67.0039 29.4178 67.6387 29.5124 68.1689 29.8304C68.6992 30.1485 69.0815 30.664 69.2319 31.2638L72.7669 45.4038C72.9173 46.004 72.823 46.6395 72.5049 47.1702C72.1868 47.701 71.6709 48.0837 71.0706 48.2341L68.5273 48.8688C67.3267 49.1687 66.0562 48.9796 64.9951 48.3429C63.934 47.7062 63.1692 46.6742 62.8689 45.4738L60.4656 35.8604ZM54.6673 52.3338C54.6673 54.9111 52.5779 57.0004 50.0006 57.0004C47.4233 57.0004 45.3339 54.9111 45.3339 52.3338C45.3339 49.7564 47.4233 47.6671 50.0006 47.6671C52.5779 47.6671 54.6673 49.7564 54.6673 52.3338Z" stroke="white" stroke-linecap="round" stroke-linejoin="round"/>
</svg>
