<svg width="100" height="100" viewBox="0 0 100 100" fill="none" xmlns="http://www.w3.org/2000/svg">
<circle cx="50" cy="50" r="50" fill="#2B0A0A"/>
<path d="M50.0007 56.9999L43.0007 49.9999M50.0007 56.9999C53.26 55.7603 56.3867 54.1969 59.334 52.3333M50.0007 56.9999V68.6666C50.0007 68.6666 57.0706 67.3833 59.334 63.9999C61.854 60.2199 59.334 52.3333 59.334 52.3333M43.0007 49.9999C44.2423 46.7786 45.8058 43.6907 47.6673 40.7833C50.3861 36.4362 54.1718 32.857 58.6643 30.3861C63.1569 27.9152 68.2069 26.6348 73.334 26.6666C73.334 33.0133 71.514 44.1666 59.334 52.3333M43.0007 49.9999H31.334C31.334 49.9999 32.6173 42.9299 36.0007 40.6666C39.7807 38.1466 47.6673 40.6666 47.6673 40.6666M32.5007 60.4999C29.0007 63.4399 27.834 72.1666 27.834 72.1666C27.834 72.1666 36.5607 70.9999 39.5007 67.4999C41.1573 65.5399 41.134 62.5299 39.2907 60.7099C38.3837 59.8443 37.189 59.3441 35.9358 59.3053C34.6827 59.2666 33.4594 59.692 32.5007 60.4999Z" stroke="white" stroke-linecap="round" stroke-linejoin="round"/>
</svg>
