<svg width="100" height="100" viewBox="0 0 100 100" fill="none" xmlns="http://www.w3.org/2000/svg">
<circle cx="50" cy="50" r="50" fill="#2B0A0A"/>
<path d="M49.9994 36.0003V45.3337M54.666 54.667H45.3327M54.666 64.0003H45.3327M54.666 40.667H45.3327M63.9994 50.0003H68.666C69.9037 50.0003 71.0907 50.492 71.9658 51.3672C72.841 52.2423 73.3327 53.4293 73.3327 54.667V68.667C73.3327 69.9047 72.841 71.0917 71.9658 71.9668C71.0907 72.842 69.9037 73.3337 68.666 73.3337H31.3327C30.095 73.3337 28.908 72.842 28.0329 71.9668C27.1577 71.0917 26.666 69.9047 26.666 68.667V47.667C26.666 46.4293 27.1577 45.2423 28.0329 44.3672C28.908 43.492 30.095 43.0003 31.3327 43.0003H35.9993M63.9994 73.3337V31.3337C63.9994 30.096 63.5077 28.909 62.6325 28.0338C61.7573 27.1587 60.5704 26.667 59.3327 26.667H40.666C39.4283 26.667 38.2414 27.1587 37.3662 28.0338C36.491 28.909 35.9993 30.096 35.9993 31.3337V73.3337" stroke="white" stroke-linecap="round" stroke-linejoin="round"/>
</svg>
