<svg width="100" height="100" viewBox="0 0 100 100" fill="none" xmlns="http://www.w3.org/2000/svg">
<circle cx="50" cy="50" r="50" fill="#2B0A0A"/>
<path d="M47.6321 54.7387H52.3707C53.6274 54.7387 54.8327 54.2395 55.7214 53.3508C56.61 52.4621 57.1093 51.2569 57.1093 50.0001C57.1093 48.7434 56.61 47.5381 55.7214 46.6495C54.8327 45.7608 53.6274 45.2616 52.3707 45.2616H45.2628C43.8413 45.2616 42.6566 45.7354 41.9459 46.6831L28.6779 59.4773M38.155 68.9544L41.9459 65.6374C42.6566 64.6897 43.8413 64.2158 45.2628 64.2158H54.74C57.3462 64.2158 59.7155 63.2681 61.374 61.3727L72.2727 50.9478C73.1869 50.0838 73.7205 48.892 73.7561 47.6346C73.7916 46.3771 73.3262 45.1571 72.4622 44.2428C71.5982 43.3285 70.4064 42.7949 69.1489 42.7593C67.8915 42.7238 66.6714 43.1892 65.7571 44.0532L55.8061 53.2934M26.3086 57.108L40.5243 71.3237M67.771 41.7077C69.4295 40.0492 71.3249 37.9168 71.3249 35.3106C71.4905 33.8628 71.1624 32.4015 70.3937 31.1635C69.6249 29.9255 68.4607 28.9834 67.0896 28.4898C65.7185 27.9962 64.2209 27.98 62.8395 28.444C61.458 28.9079 60.2738 29.8247 59.4785 31.0459C58.6328 29.9195 57.4482 29.0939 56.0986 28.6903C54.7491 28.2867 53.3057 28.3264 51.9804 28.8035C50.6551 29.2806 49.5177 30.17 48.735 31.3412C47.9524 32.5124 47.5659 33.9036 47.6321 35.3106C47.6321 38.1537 49.5276 40.0492 51.186 41.9446L59.4785 50.0001L67.771 41.7077Z" stroke="white" stroke-linecap="round" stroke-linejoin="round"/>
</svg>
